<svg width="460" height="454" viewBox="0 0 460 454" fill="none" xmlns="http://www.w3.org/2000/svg">
<path d="M102.58 117.132L115 169.342L102.58 221.325L148.81 249.473L177.1 295.1L230 282.842L282.9 295.1L311.19 249.473L357.42 221.325L345 169.342L357.42 117.132L311.42 88.984L282.9 43.357L230 55.842L177.33 43.584L148.58 88.984L102.58 117.132ZM230.23 261.05C205.83 261.05 182.429 251.484 165.176 234.455C147.923 217.427 138.23 194.332 138.23 170.25C138.23 146.168 147.923 123.073 165.176 106.045C182.429 89.0164 205.83 79.45 230.23 79.45C280.83 79.45 322 120.083 322 170.023C322 220.417 280.83 261.05 230.23 261.05ZM229.77 238.35C191.59 238.35 161 207.932 161 170.25C161 132.795 191.59 102.15 229.77 102.15C267.95 102.15 299 132.795 299 170.25C299 207.932 267.95 238.35 229.77 238.35ZM318.09 263.32L288.65 314.168L240.81 303.499L299 435.84L331.2 385.9H388.7L318.09 263.32ZM140.99 264.909L169.74 315.984L218.73 304.407L161 435.84L128.8 385.9H71.2998L140.99 264.909Z" fill="#4F1CB3"/>
</svg>
