<svg width="837" height="352" viewBox="0 0 837 352" fill="none" xmlns="http://www.w3.org/2000/svg">
<path d="M549.573 251.518C592.729 223.945 614.797 186.601 636.266 141.257C668.161 73.8613 746.172 31.1581 812.068 3.77793C815.276 2.35605 818.266 1.18939 821.49 0.00188657C761.578 -0.253321 696.505 25.4081 648.13 62.3561C593.047 104.533 562.219 170.429 503.302 208.872C477.792 225.434 444.01 239.07 413.406 241.351C435.323 246.335 463.255 262.215 454.63 289.34C488.073 280.695 520.198 270.262 549.573 251.518Z" fill="#8C52FF"/>
<path d="M690.265 90.8925C671.448 108.372 657.213 126.929 647.802 146.783C643.494 155.616 639.401 164.195 635.036 172.32C635.489 172.054 635.942 171.783 636.375 171.278C636.375 171.278 636.609 171.257 636.593 171.023C637.047 170.752 637.484 170.247 637.937 169.976C641.073 167.616 644.666 164.981 648.942 162.064C687.63 134.825 769.677 82.8352 820.036 94.679C823.656 95.5904 827.057 96.7571 830.239 98.1738C830.963 98.3561 831.468 98.7883 832.208 99.205C832.698 99.4081 833.203 99.8404 833.927 100.023C834.161 100.007 834.182 100.241 834.416 100.226C834.922 100.658 835.411 100.861 836.151 101.278C835.682 101.314 791.088 46.2467 690.265 90.8925Z" fill="#8C52FF"/>
<path d="M671.406 164.877C671.406 164.877 642.677 185.934 623.089 193.075C605.771 221.08 585.438 243.637 556.297 262.366C556.536 262.346 556.536 262.346 556.771 262.33C557.005 262.309 557.458 262.043 557.927 262.007C557.927 262.007 557.927 262.007 558.167 261.986C558.401 261.971 558.635 261.955 558.635 261.955C558.635 261.955 558.635 261.955 558.87 261.934C559.104 261.918 559.344 261.903 559.557 261.648L559.797 261.632C560.031 261.611 560.031 261.611 560.266 261.596L560.5 261.58C560.734 261.559 560.974 261.543 561.193 261.288C561.427 261.273 561.427 261.273 561.661 261.257L561.896 261.236C562.13 261.221 562.37 261.2 562.37 261.2C562.839 261.168 563.292 260.898 563.76 260.861L564 260.846C564.688 260.554 565.63 260.486 566.552 260.179C568.635 259.554 570.953 258.908 573.729 257.991C574.885 257.668 575.813 257.361 576.953 256.804L577.188 256.788C578.349 256.46 579.505 256.137 580.411 255.601C580.651 255.58 580.651 255.58 580.865 255.33C581.557 255.043 582.26 254.986 582.714 254.721C582.948 254.7 582.948 254.7 583.188 254.684C610.167 245.106 651.635 226.642 685.26 195.049C714.672 167.325 749.083 162.153 774.484 163.096C792.297 163.892 805.599 167.627 809.974 169.189C810.208 169.174 810.229 169.408 810.464 169.392C810.698 169.372 810.698 169.372 810.719 169.611L810.953 169.59L811.188 169.575C811.188 169.575 730.688 124.991 671.406 164.877Z" fill="#8C52FF"/>
<path d="M635.515 245.34C604.672 263.481 573.036 274.116 536.557 273.767C536.557 273.767 536.317 273.783 535.864 274.054C516.708 283.762 497.338 290.642 478.802 296.049C473.51 298.096 470.067 299.538 470.067 299.538L470.302 299.517L470.536 299.502C470.536 299.502 470.536 299.502 470.771 299.481L471.01 299.465C471.244 299.45 471.244 299.45 471.479 299.429C471.713 299.413 471.713 299.413 471.948 299.398C471.948 299.398 471.948 299.398 472.187 299.377C472.422 299.361 472.422 299.361 472.656 299.34C472.656 299.34 472.656 299.34 472.89 299.325C473.364 299.288 473.614 299.507 474.104 299.705C474.338 299.689 474.593 299.908 474.593 299.908C474.828 299.887 475.078 300.106 475.317 300.09C475.802 300.288 476.291 300.491 476.781 300.689C477.015 300.674 477.271 300.887 477.505 300.872C482.625 302.856 488.739 305.471 490.672 306.038C508.802 311.064 527.479 313.929 546.401 313.695C596.099 313.533 627.802 291.07 663.812 259.778C686.276 240.366 711.771 223.57 740.797 222.351C741.5 222.293 742.208 222.241 743.151 222.174C743.385 222.153 743.619 222.137 743.619 222.137C744.328 222.085 745.031 222.033 745.755 222.215C746.463 222.163 747.187 222.346 747.896 222.293C748.13 222.273 748.364 222.257 748.599 222.241C749.307 222.184 750.031 222.366 750.734 222.314C751.458 222.497 752.166 222.445 752.89 222.627C753.125 222.611 753.359 222.59 753.593 222.575C754.317 222.757 755.026 222.705 755.984 222.872C756.708 223.054 757.432 223.236 758.375 223.163C758.609 223.148 758.843 223.127 758.864 223.366C759.588 223.549 760.547 223.71 761.271 223.892C767.531 225.32 774.297 227.179 779.755 230.554C764.135 221.08 752.385 212.736 732.823 210.653C696.802 206.955 666.573 226.945 635.515 245.34Z" fill="#8C52FF"/>
<path d="M287.479 252.304C244.156 224.991 221.865 187.778 200.12 142.57C167.818 75.3664 89.5573 33.1321 23.4948 6.1529C20.2813 4.74665 17.2813 3.60081 14.0469 2.42894C73.9583 1.81435 139.188 27.0852 187.781 63.7362C243.12 105.58 274.344 171.288 333.49 209.377C359.104 225.783 392.964 239.215 423.578 241.314C401.698 246.429 373.859 262.481 382.651 289.549C349.156 281.111 316.969 270.866 287.479 252.304Z" fill="#8C52FF"/>
<path d="M145.818 92.5278C164.74 109.892 179.089 128.366 188.62 148.158C192.984 156.965 197.13 165.523 201.542 173.622C201.089 173.356 200.63 173.085 200.193 172.585C200.193 172.585 199.958 172.569 199.974 172.335C199.521 172.064 199.078 171.564 198.625 171.293C195.474 168.955 191.865 166.34 187.568 163.45C148.724 136.444 66.3594 84.9496 16.0729 97.0955C12.4635 98.0278 9.06771 99.2153 5.89063 100.653C5.17187 100.84 4.66667 101.278 3.92708 101.7C3.44271 101.903 2.9375 102.34 2.21354 102.528C1.97917 102.512 1.96354 102.747 1.72917 102.731C1.22396 103.168 0.739584 103.372 0 103.793C0.468751 103.825 44.7292 48.4913 145.818 92.5278Z" fill="#8C52FF"/>
<path d="M165.125 166.398C165.125 166.398 193.979 187.283 213.609 194.299C231.099 222.205 251.568 244.642 280.818 263.189C280.583 263.174 280.583 263.174 280.349 263.158C280.109 263.142 279.656 262.872 279.188 262.84C279.188 262.84 279.188 262.84 278.948 262.825C278.714 262.809 278.479 262.794 278.479 262.794C278.479 262.794 278.479 262.794 278.245 262.778C278.005 262.757 277.771 262.741 277.552 262.491L277.318 262.476C277.083 262.46 277.083 262.46 276.844 262.445L276.609 262.429C276.375 262.413 276.141 262.392 275.922 262.142C275.682 262.127 275.682 262.127 275.448 262.111L275.214 262.096C274.979 262.08 274.745 262.064 274.745 262.064C274.271 262.028 273.818 261.762 273.344 261.731L273.109 261.715C272.422 261.429 271.479 261.366 270.552 261.064C268.464 260.45 266.141 259.82 263.365 258.919C262.203 258.601 261.276 258.304 260.13 257.752L259.896 257.736C258.734 257.419 257.573 257.106 256.661 256.57C256.427 256.554 256.427 256.554 256.208 256.304C255.516 256.017 254.813 255.971 254.354 255.7C254.12 255.684 254.12 255.684 253.885 255.669C226.849 246.252 185.266 228.038 151.453 196.653C121.875 169.101 87.4323 164.142 62.0365 165.236C44.2292 166.142 30.9531 169.955 26.5833 171.549C26.349 171.533 26.3333 171.767 26.099 171.752C25.8646 171.736 25.8646 171.736 25.8438 171.971L25.375 171.939C25.375 171.939 105.604 126.866 165.125 166.398Z" fill="#8C52FF"/>
<path d="M201.5 246.642C232.453 264.596 264.151 275.044 300.63 274.471C300.63 274.471 300.865 274.486 301.318 274.757C320.536 284.346 339.948 291.111 358.516 296.403C363.823 298.419 367.271 299.84 367.271 299.84L366.802 299.809C366.802 299.809 366.802 299.809 366.568 299.788L366.333 299.773C366.094 299.757 366.094 299.757 365.859 299.741C365.625 299.726 365.625 299.726 365.391 299.71C365.391 299.71 365.391 299.71 365.151 299.695C364.917 299.679 364.917 299.679 364.682 299.663C364.682 299.663 364.682 299.663 364.448 299.648C363.974 299.611 363.724 299.83 363.234 300.033C363 300.017 362.75 300.236 362.75 300.236C362.516 300.221 362.26 300.439 362.026 300.424C361.542 300.627 361.052 300.83 360.568 301.033C360.328 301.017 360.078 301.236 359.844 301.221C354.734 303.231 348.641 305.887 346.708 306.465C328.609 311.601 309.948 314.575 291.026 314.46C241.323 314.596 209.49 292.325 173.286 261.247C150.714 241.976 125.115 225.33 96.0833 224.288C95.375 224.236 94.6719 224.189 93.7292 224.127C93.4948 224.106 93.2552 224.09 93.2552 224.09C92.5521 224.044 91.8438 223.997 91.1198 224.184C90.4167 224.132 89.6927 224.32 88.9844 224.273C88.75 224.257 88.5156 224.241 88.2813 224.226C87.5729 224.174 86.849 224.361 86.1406 224.314C85.4219 224.502 84.7135 224.45 83.9896 224.637C83.7552 224.622 83.5208 224.606 83.2865 224.59C82.5625 224.778 81.8542 224.726 80.8958 224.898C80.1771 225.085 79.4531 225.273 78.5104 225.21C78.276 225.189 78.0365 225.174 78.0208 225.408C77.3021 225.596 76.3438 225.767 75.6198 225.955C69.3646 227.419 62.6094 229.314 57.1719 232.726C72.7344 223.158 84.4323 214.741 103.99 212.538C139.984 208.627 170.333 228.434 201.5 246.642Z" fill="#8C52FF"/>
<path d="M418.635 253.46L383.635 302.419L418.635 351.382L453.635 302.419L418.635 253.46Z" fill="#8C52FF"/>
</svg>
