<?xml version="1.0" standalone="no"?>
<!DOCTYPE svg PUBLIC "-//W3C//DTD SVG 20010904//EN"
 "http://www.w3.org/TR/2001/REC-SVG-20010904/DTD/svg10.dtd">
<svg version="1.0" xmlns="http://www.w3.org/2000/svg"
 width="181.000000pt" height="181.000000pt" viewBox="0 0 181.000000 181.000000"
 preserveAspectRatio="xMidYMid meet">
<metadata>
Created by potrace 1.14, written by Peter Selinger 2001-2017
</metadata>
<g transform="translate(0.000000,181.000000) scale(0.100000,-0.100000)"
fill="#000000" stroke="none">
<path d="M755 1629 c-27 -6 -86 -22 -130 -36 -44 -15 -85 -27 -90 -27 -6 -1
-21 -11 -35 -23 -27 -26 -36 -28 -45 -12 -4 6 -17 -4 -31 -25 -26 -37 -39 -45
-46 -24 -7 19 -28 -1 -28 -26 0 -13 -6 -29 -14 -35 -12 -10 -17 -8 -27 10 -10
20 -12 21 -21 5 -6 -10 -8 -30 -5 -46 9 -43 -13 -56 -39 -23 l-22 28 -7 -28
c-5 -18 -2 -35 8 -50 12 -18 12 -26 3 -40 -12 -15 -15 -13 -36 15 -15 20 -25
26 -30 19 -11 -20 1 -60 23 -76 18 -12 18 -16 6 -32 -7 -10 -14 -20 -16 -22
-1 -2 -14 11 -29 28 -16 19 -30 29 -36 23 -11 -11 4 -53 26 -71 18 -15 21 -46
7 -56 -6 -3 -13 1 -18 8 -10 17 -53 41 -60 33 -11 -11 19 -64 43 -74 25 -12
28 -20 18 -45 -5 -13 -11 -11 -41 9 -40 27 -53 30 -53 11 0 -21 29 -56 61 -72
17 -9 29 -24 29 -35 0 -24 1 -24 -36 -6 -44 21 -74 28 -74 18 0 -21 43 -62 73
-70 25 -6 33 -14 35 -36 3 -26 3 -27 -20 -13 -32 20 -91 31 -82 14 19 -34 52
-58 85 -63 27 -5 39 -12 43 -27 7 -28 6 -28 -35 -17 -82 24 -101 4 -38 -38 25
-17 43 -22 67 -18 28 4 34 1 42 -20 6 -14 10 -26 10 -27 0 -1 -27 0 -60 1 -66
4 -77 -7 -34 -35 16 -10 46 -17 78 -17 35 0 55 -5 63 -15 19 -24 16 -26 -30
-26 -23 0 -51 -4 -62 -9 -19 -7 -19 -8 4 -27 25 -21 90 -26 120 -9 14 7 24 4
41 -15 l23 -25 -25 0 c-14 0 -45 -9 -68 -19 -42 -19 -42 -19 -19 -31 33 -18
104 -16 134 4 24 16 28 16 44 2 10 -9 22 -16 27 -16 5 0 -2 9 -16 19 -20 16
-22 22 -11 34 18 22 38 11 43 -24 4 -26 1 -30 -31 -39 -20 -6 -53 -21 -74 -34
-45 -27 -34 -36 42 -36 34 0 56 6 75 21 23 18 30 19 62 9 l35 -12 -39 -19
c-22 -11 -49 -31 -62 -44 l-23 -24 28 -7 c36 -9 102 12 132 42 28 28 24 27 59
14 l28 -11 -32 -19 c-18 -11 -32 -23 -32 -28 0 -5 -9 -18 -20 -29 -17 -18 -17
-22 -3 -27 39 -15 135 33 148 74 7 21 36 25 84 11 23 -6 22 -7 -18 -34 -41
-27 -53 -47 -28 -47 7 0 29 12 48 26 56 42 75 46 118 25 20 -11 43 -27 50 -35
17 -20 41 -21 41 -1 0 9 -16 25 -36 37 -32 19 -35 23 -18 29 44 17 78 10 96
-20 18 -34 57 -56 111 -66 49 -10 48 4 -8 62 -25 25 -45 47 -45 49 0 1 13 4
29 7 24 5 36 0 60 -23 33 -30 95 -47 131 -35 20 6 19 7 -7 36 -16 16 -43 34
-62 40 l-34 12 33 13 c29 13 35 12 60 -6 28 -20 108 -28 145 -14 13 5 9 11
-17 27 -18 11 -48 26 -66 32 l-33 12 25 17 c24 15 28 15 51 0 31 -20 82 -22
124 -5 l32 14 -42 18 c-22 11 -55 19 -73 19 l-31 1 29 24 c24 19 34 22 49 13
26 -14 105 -4 124 15 13 13 11 16 -22 27 -20 7 -50 9 -66 6 -29 -6 -30 -5 -14
17 12 18 25 22 68 23 32 0 63 7 80 18 43 29 33 39 -37 34 -63 -4 -64 -4 -53
19 6 13 13 23 16 24 3 0 23 1 44 3 39 3 87 31 95 56 4 10 -5 12 -43 7 -26 -4
-55 -13 -63 -20 -13 -10 -15 -9 -9 13 4 14 7 28 7 33 0 4 11 7 24 7 29 0 90
40 94 62 3 14 -2 15 -35 7 -56 -14 -58 -15 -60 -6 -8 22 -1 37 18 37 31 0 57
18 74 51 l16 30 -28 -7 c-15 -3 -40 -15 -55 -25 l-28 -20 0 31 c0 23 5 31 25
36 27 7 65 48 65 70 0 20 -12 17 -54 -11 -20 -14 -38 -25 -39 -25 -2 0 -3 10
-4 21 -1 13 12 35 33 54 34 32 45 65 21 65 -7 0 -24 -11 -39 -25 -33 -30 -34
-30 -41 -4 -4 15 2 28 20 43 18 16 24 29 21 51 l-3 30 -32 -33 c-31 -32 -32
-32 -43 -12 -9 17 -8 24 9 38 20 17 25 31 22 67 -2 17 -6 16 -30 -14 -27 -31
-30 -32 -39 -14 -7 12 -7 25 -1 34 12 19 12 69 -1 69 -5 0 -13 -7 -18 -17 -16
-28 -43 -9 -36 27 4 18 1 36 -7 46 -12 14 -14 14 -21 -5 -12 -32 -26 -25 -38
19 -12 44 -25 58 -34 35 -8 -23 -42 -2 -50 30 -6 24 -26 36 -26 15 0 -17 -17
-11 -41 15 -13 13 -31 25 -40 25 -8 0 -47 11 -86 24 -128 43 -295 57 -418 35z
m110 -58 c3 -5 1 -12 -4 -15 -5 -4 -8 -14 -6 -24 2 -9 4 -23 4 -29 1 -7 11
-13 22 -13 20 0 21 4 17 45 -5 41 -4 45 17 45 19 0 21 -5 20 -45 -3 -54 -18
-75 -56 -75 -40 0 -69 53 -60 113 1 10 39 9 46 -2z m197 -66 c9 -33 16 -60 15
-62 -2 -1 -12 0 -24 3 -13 4 -20 11 -16 20 3 8 1 14 -5 14 -6 0 -17 3 -26 6
-11 4 -16 1 -16 -10 0 -9 -8 -16 -20 -16 -11 0 -20 2 -20 5 0 14 74 105 83
102 6 -2 19 -30 29 -62z m-280 38 c28 -33 29 -53 3 -79 -13 -13 -33 -24 -45
-24 -11 0 -36 -6 -54 -14 -24 -10 -37 -11 -44 -4 -15 15 -43 2 -36 -15 8 -22
-48 -58 -82 -53 -16 2 -23 1 -16 -1 17 -6 15 -30 -4 -37 -25 -10 -31 -7 -37
14 -3 11 -19 28 -36 37 -17 10 -31 20 -31 23 0 3 16 16 35 29 38 25 64 22 72
-8 6 -23 26 -33 48 -25 12 5 14 17 9 59 -8 68 5 76 61 36 58 -42 77 -41 64 1
-5 17 -13 36 -19 42 -16 16 -12 24 18 29 58 9 79 6 94 -10z m428 -41 c0 -8 -8
-10 -24 -6 -22 5 -26 1 -37 -35 -13 -42 -23 -49 -49 -30 -11 8 -12 12 -2 16
11 4 42 54 42 68 0 3 -10 5 -21 5 -17 0 -19 3 -10 14 10 11 18 11 56 -3 25 -9
45 -22 45 -29z m58 -37 c-21 -14 -52 -65 -45 -71 11 -12 43 7 62 36 11 16 25
28 30 27 6 -2 12 -26 15 -53 l6 -49 13 28 c16 30 22 32 39 15 16 -16 15 -28
-1 -28 -7 0 -26 -13 -42 -30 -16 -16 -32 -30 -37 -30 -4 0 -8 21 -8 46 0 40
-2 45 -15 34 -8 -7 -15 -19 -15 -26 0 -20 -13 -17 -59 13 l-40 26 29 30 c17
17 30 39 30 49 0 15 3 16 26 6 21 -10 23 -14 12 -23z m-241 -50 c156 -37 286
-136 346 -263 40 -85 49 -209 22 -294 -49 -151 -181 -269 -353 -313 -72 -19
-221 -19 -291 0 -253 67 -413 304 -357 525 65 254 354 411 633 345z m-617 -70
c0 -8 -9 -15 -21 -15 -16 0 -20 -5 -17 -27 2 -23 8 -28 32 -28 16 0 31 6 34
14 3 10 0 12 -11 8 -24 -9 -29 8 -8 27 16 15 19 15 35 -3 23 -26 17 -52 -16
-70 -34 -20 -77 -6 -97 31 -15 25 -14 29 8 52 27 29 61 35 61 11z m1066 -47
c6 -20 -2 -38 -17 -38 -5 0 -9 8 -9 19 0 29 -23 43 -54 31 -27 -10 -30 -17
-20 -44 8 -20 24 -21 24 -1 0 19 14 19 30 0 11 -13 10 -18 -6 -30 -27 -20 -37
-19 -63 9 -32 34 -22 72 22 91 28 11 36 11 59 -3 16 -9 31 -24 34 -34z m-1141
-132 c0 -22 -14 -29 -34 -17 -19 12 -6 43 16 39 10 -2 18 -12 18 -22z m1171
13 c3 -6 -1 -18 -10 -27 -15 -15 -17 -15 -32 0 -19 19 -11 38 16 38 10 0 22
-5 26 -11z m-1356 -235 c0 -8 -4 -14 -10 -14 -5 0 -10 9 -10 21 0 11 5 17 10
14 6 -3 10 -13 10 -21z m1520 -6 c0 -16 -3 -19 -11 -11 -6 6 -8 16 -5 22 11
17 16 13 16 -11z m-1515 -83 c0 -10 -6 -20 -12 -22 -8 -3 -13 5 -13 22 0 17 5
25 13 23 6 -3 12 -13 12 -23z m1515 13 c0 -7 -4 -19 -9 -27 -11 -17 -25 3 -17
24 7 18 26 20 26 3z m-1492 -100 c-2 -13 -7 -23 -13 -23 -5 0 -11 10 -13 23
-2 15 2 22 13 22 11 0 15 -7 13 -22z m1472 13 c0 -5 -3 -17 -6 -25 -5 -13 -10
-14 -20 -6 -7 7 -10 18 -7 26 6 15 33 20 33 5z m-1427 -95 c3 -8 0 -20 -8 -26
-11 -9 -16 -7 -24 8 -6 11 -7 22 -4 26 11 11 31 6 36 -8z m1391 5 c3 -4 -1
-17 -9 -27 -12 -16 -16 -17 -24 -5 -5 8 -7 20 -4 28 6 15 29 18 37 4z m-204
-20 c5 -11 10 -32 10 -47 0 -26 0 -27 20 -9 28 25 25 3 -3 -23 -29 -27 -37
-20 -37 29 0 45 -14 57 -41 33 -15 -14 -19 -14 -19 -3 0 38 52 52 70 20z
m-902 -36 c28 -27 41 -45 31 -45 -8 0 -27 -13 -42 -28 l-27 -29 26 -12 c19 -8
24 -15 17 -22 -7 -7 -22 -3 -47 13 -37 24 -45 37 -23 39 6 0 25 16 42 36 27
33 28 35 7 29 -18 -6 -22 -3 -22 12 0 27 -28 36 -56 17 -29 -19 -30 -30 -4
-52 22 -19 26 -33 10 -33 -14 0 -60 46 -60 60 0 21 49 60 75 60 16 0 42 -16
73 -45z m822 -24 c5 -11 10 -29 10 -40 0 -12 5 -21 10 -21 6 0 10 8 10 17 0
14 2 15 13 4 10 -10 6 -17 -18 -37 l-30 -24 -5 48 c-4 39 -9 47 -25 47 -14 0
-19 -6 -17 -17 2 -10 -2 -18 -8 -18 -14 0 -13 33 2 48 18 18 46 14 58 -7z
m-1055 -31 c-7 -21 -7 -21 -27 -4 -18 17 -18 19 -2 31 23 17 38 2 29 -27z
m1279 -1 c-19 -21 -34 -17 -34 10 0 26 10 32 32 20 19 -10 19 -12 2 -30z
m-278 -44 c19 -28 14 -49 -15 -64 -16 -9 -25 -6 -50 15 -38 31 -42 71 -8 83
27 10 51 -1 73 -34z m-632 -3 c-1 -6 -2 -32 -2 -57 -2 -38 -5 -45 -23 -45 -16
0 -19 4 -14 19 4 14 0 21 -16 26 -12 4 -24 2 -29 -4 -7 -12 -41 -5 -39 8 0 3
21 20 47 38 48 32 78 38 76 15z m-294 -28 c0 -29 -11 -31 -34 -5 -17 18 -17
20 1 29 23 13 33 6 33 -24z m820 -9 c0 -13 -4 -27 -10 -30 -19 -12 -11 -26 9
-15 24 12 31 13 31 2 0 -10 -45 -32 -65 -32 -11 0 -11 7 2 40 13 32 14 43 4
53 -10 9 -15 8 -25 -5 -16 -22 -26 -23 -26 -3 0 20 40 35 63 23 9 -5 17 -20
17 -33z m316 30 c6 -16 -12 -45 -27 -45 -10 0 -12 44 -2 53 11 11 23 8 29 -8z
m-736 -15 c12 -6 17 -16 13 -26 -5 -13 -8 -13 -24 2 -28 25 -36 8 -11 -19 28
-30 28 -45 -2 -58 -34 -16 -82 11 -60 34 4 3 13 -1 22 -9 10 -11 18 -12 25 -5
8 8 5 16 -11 27 -49 34 -5 83 48 54z m97 -25 c7 -21 -6 -33 -17 -16 -5 9 -15
11 -26 7 -17 -7 -16 -9 9 -22 30 -16 35 -45 12 -64 -18 -15 -65 -5 -65 14 0
22 12 26 26 8 9 -12 16 -14 24 -6 8 8 4 15 -14 28 -28 18 -33 35 -14 54 17 17
58 15 65 -3z m168 -15 c-5 -15 -2 -20 11 -20 16 0 16 -1 -2 -15 -12 -9 -14
-14 -6 -15 7 0 10 -5 7 -10 -10 -16 -22 -3 -29 32 -4 21 -2 34 6 40 19 11 20
10 13 -12z m30 10 c3 -5 1 -10 -4 -10 -6 0 -11 5 -11 10 0 6 2 10 4 10 3 0 8
-4 11 -10z m-67 -39 c7 -44 -63 -60 -74 -17 -8 35 3 48 39 44 25 -2 33 -8 35
-27z m416 -12 c-22 -25 -42 -24 -40 1 1 27 26 42 43 28 11 -9 10 -14 -3 -29z
m-845 -51 c11 -30 7 -33 -29 -18 -24 10 -28 15 -19 26 17 21 39 17 48 -8z
m748 5 c3 -7 -8 -18 -23 -23 -32 -13 -34 -11 -23 18 9 25 39 27 46 5z m-632
-43 c22 -25 16 -33 -19 -24 -25 6 -34 23 -19 37 10 11 19 8 38 -13z m515 -5
c0 -14 -48 -30 -59 -20 -8 9 39 46 50 39 5 -3 9 -11 9 -19z m-274 -18 c55 0
111 4 123 8 19 6 22 4 19 -12 -3 -14 -16 -19 -68 -25 -74 -8 -218 1 -226 13
-10 17 8 30 29 23 12 -4 67 -7 123 -7z"/>
<path d="M1016 1515 c-3 -8 -1 -15 4 -15 6 0 10 7 10 15 0 8 -2 15 -4 15 -2 0
-6 -7 -10 -15z"/>
<path d="M717 1534 c-9 -9 6 -56 20 -61 20 -8 36 11 29 35 -6 18 -39 36 -49
26z"/>
<path d="M590 1460 c0 -5 5 -10 11 -10 5 0 7 5 4 10 -3 6 -8 10 -11 10 -2 0
-4 -4 -4 -10z"/>
<path d="M457 1404 c-8 -8 1 -24 14 -24 5 0 9 7 9 15 0 15 -12 20 -23 9z"/>
<path d="M514 1077 c8 -45 21 -67 42 -67 8 0 14 -5 14 -11 0 -5 -4 -7 -10 -4
-23 15 -7 -17 28 -53 39 -41 130 -82 180 -82 34 0 100 -33 118 -59 13 -19 15
-18 47 14 25 25 45 35 83 40 76 10 115 25 167 62 56 41 76 71 56 84 -11 7 -10
9 4 9 19 0 47 54 47 91 0 16 -4 19 -17 13 -40 -17 -150 -43 -186 -43 -30 -1
-45 -8 -71 -36 -19 -19 -40 -35 -49 -35 -19 0 -31 32 -22 60 6 17 2 20 -29 20
-33 0 -38 -4 -52 -40 -20 -50 -43 -52 -81 -6 -25 30 -35 34 -94 39 -37 3 -93
15 -124 25 l-57 20 6 -41z"/>
<path d="M1200 537 c0 -29 34 -62 55 -53 30 11 -6 76 -42 76 -7 0 -13 -11 -13
-23z"/>
<path d="M601 511 c-10 -6 -10 -10 -1 -16 13 -8 24 -1 19 14 -3 6 -10 7 -18 2z"/>
<path d="M913 444 c-6 -16 11 -34 33 -34 14 0 26 28 18 41 -9 15 -44 10 -51
-7z"/>
</g>
</svg>
